<svg xmlns="http://www.w3.org/2000/svg" viewBox="379.398 320.75 14.654 30.438">
  <defs>
    <style>
      .cls-1 {
        fill: none;
        stroke: #fff;
        stroke-linecap: square;
        stroke-miterlimit: 10;
        stroke-width: 1.5px;
      }
    </style>
  </defs>
  <g id="group-195" transform="translate(-215 10)">
    <path id="path" class="cls-1" d="M13.865,36.758H7.288l-.658-7.892L4,28.208V21.631A2.631,2.631,0,0,1,6.631,19h7.892a2.631,2.631,0,0,1,2.631,2.631v6.577l-2.631.658Z" transform="translate(591.148 303.681)"/>
    <path id="path-2" data-name="path" class="cls-1" d="M11.946,9.892h0A3.946,3.946,0,0,1,8,5.946H8A3.946,3.946,0,0,1,11.946,2h0a3.946,3.946,0,0,1,3.946,3.946h0A3.946,3.946,0,0,1,11.946,9.892Z" transform="translate(589.779 309.5)"/>
  </g>
</svg>
